<?xml version="1.0" standalone="no"?>
<!DOCTYPE svg PUBLIC "-//W3C//DTD SVG 1.1//EN" "http://www.w3.org/Graphics/SVG/1.1/DTD/svg11.dtd" >
<!--
2013-9-30: Created.
-->
<svg>
<metadata>
Created by iconfont
</metadata>
<defs>

<font id="iconfont" horiz-adv-x="1024" >
  <font-face
    font-family="iconfont"
    font-weight="500"
    font-stretch="normal"
    units-per-em="1024"
    ascent="896"
    descent="-128"
  />
    <missing-glyph />
    
    <glyph glyph-name="youhuiquan" unicode="&#58977;" d="M430.144-60.96c-22.72 0-44 8.96-59.872 25.248l-68.064 70.176c-12.288 12.672-12 32.832 0.608 45.184 14.272 13.92 22.24 32.544 22.464 52.48 0.224 19.904-7.328 38.688-21.248 52.928-27.904 28.576-77.056 29.152-105.504 1.312-6.08-5.952-15.328-9.056-22.784-9.12-8.512 0.128-16.64 3.584-22.56 9.728l-67.968 70.048c-15.52 15.808-24.032 36.928-23.808 59.296 0.256 22.4 9.216 43.328 25.248 59.008L530.112 809.856c32.192 31.328 87.168 30.624 118.4-1.312l68.128-70.208c12.288-12.672 12-32.864-0.64-45.184-14.24-13.952-22.24-32.608-22.464-52.544s7.328-38.72 21.216-52.992c27.872-28.48 77.056-29.12 105.6-1.248 6.08 5.952 14.688 8.384 22.784 9.12 8.512-0.128 16.64-3.616 22.528-9.728l67.936-70.112c15.488-15.712 24-36.768 23.808-59.104-0.192-22.4-9.12-43.392-25.12-59.072L488.672-37.12C472.864-52.512 452.096-60.96 430.144-60.96zM367.808 58.784l48.352-49.888c7.264-7.392 20.224-7.648 27.808-0.224l443.52 434.464c3.776 3.712 5.888 8.672 5.952 13.952 0.032 5.216-1.952 10.112-5.6 13.824l-48.352 49.92c-21.312-12.832-45.824-19.68-71.296-19.68-37.664 0-72.864 14.816-99.2 41.76-25.888 26.464-39.872 61.408-39.456 98.432 0.32 26.176 7.776 51.136 21.504 72.672l-48.384 49.856c-7.2 7.328-20.256 7.552-27.84 0.192L131.392 329.568c-3.808-3.712-5.92-8.672-5.984-13.92-0.032-5.248 1.952-10.176 5.6-13.952l48.32-49.824c21.312 12.832 45.792 19.68 71.232 19.68 37.664 0 72.928-14.848 99.232-41.824 25.856-26.432 39.904-61.376 39.456-98.368C388.96 105.248 381.504 80.288 367.808 58.784zM354.208 312.768c-8.192 0-16.384 3.136-22.624 9.376-12.512 12.512-12.512 32.736 0 45.248L510.24 546.08c12.512 12.512 32.768 12.512 45.28 0 12.48-12.48 12.48-32.736 0-45.248L376.864 322.144C370.592 315.904 362.4 312.768 354.208 312.768zM449.824 217.184c-8.192 0-16.384 3.136-22.624 9.376-12.512 12.512-12.512 32.736 0 45.248l178.656 178.688c12.512 12.512 32.736 12.512 45.248 0 12.512-12.48 12.512-32.736 0-45.248L472.448 226.56C466.176 220.32 457.984 217.184 449.824 217.184z"  horiz-adv-x="1024" />

    
    <glyph glyph-name="qianjin-copy" unicode="&#58882;" d="M404.846 726.933l321.044-321.044c12.089-12.089 12.089-31.69 0-43.779l-321.044-321.044c-12.089-12.089-31.69-12.089-43.779 0-12.089 12.089-12.089 31.69 0 43.779l321.044 321.044v-43.779l-321.044 321.044c-12.089 12.089-12.089 31.69 0 43.779s31.69 12.089 43.779 0v0 0z"  horiz-adv-x="1024" />

    
    <glyph glyph-name="gouwuche" unicode="&#59366;" d="M289.92 128c2.56 0 632.32 0 639.36 0 14.72 0 26.24 12.8 28.16 28.8 0 0 43.52 244.48 64 413.44C1027.2 616.96 1004.8 640 961.92 640L264.96 640 253.44 739.84C251.52 755.2 240.64 768 226.56 768 224.64 768 97.92 768 97.92 768c-17.92 0-32-14.08-32-32 0-17.92 14.08-32 32-32l99.84 0 64.64-547.2C263.68 140.8 275.84 128 289.92 128zM960.64 576c-17.28-135.68-46.08-316.16-57.6-384L318.08 192 272.64 576 960.64 576zM321.92 64c-35.2 0-64-28.8-64-64 0-35.2 28.8-64 64-64 35.2 0 64 28.8 64 64C385.92 35.2 357.12 64 321.92 64zM897.92 64c-35.2 0-64-28.8-64-64 0-35.2 28.8-64 64-64 35.2 0 64 28.8 64 64C961.92 35.2 933.12 64 897.92 64z"  horiz-adv-x="1024" />

    
    <glyph glyph-name="daishouhuo" unicode="&#59021;" d="M106.702491 837.658082C50.484724 837.658082 4.923841 792.263374 4.923841 736.327383l0-570.786256 0-0.1156c0-14.717336 11.979059-26.667495 26.77587-26.667495 14.804036 0 26.808382 11.950159 26.808382 26.667495l0 0.1156L58.508093 730.980879c0 29.438284 23.954505 53.309702 53.555352 53.309702L689.626755 784.290581c29.579172 0 53.573414-23.871417 53.573414-53.309702l0-171.568588 0.01445 0c0-0.025288-0.01445-0.050575-0.01445-0.108375 0-11.617809 7.535681-21.219841 17.936076-24.893756l215.099245-123.879941 0-326.653327 0-0.0578c0-14.713723 10.68217-26.71807 23.87503-26.71807 13.214535 0 23.88948 12.004346 23.88948 26.71807l0 0.0578 0 340.290524c-0.01445 7.886093-4.114641 14.551161-10.04637 18.868101l0.267325 0.444338L796.759134 568.70726 796.759134 736.323771c0 55.939603-45.557271 101.334312-101.77865 101.334312L106.702491 837.658082 106.702491 837.658082zM106.702491 837.658082M834.668736 333.901813l-135.122049 0 0 106.03779c0 0.050575 0.01445 0.104763 0.01445 0.162563 0 14.077923-11.480533 25.504269-25.648769 25.504269-14.13211 0-25.619869-11.422733-25.619869-25.504269l0-106.200353c0 0-3.095915-51.293925 51.254188-51.008537l134.818599 0c0.075863 0 0.191463-0.065025 0.27455-0.065025 14.16101 0 25.663219 11.458858 25.663219 25.511494S848.800847 333.840401 834.668736 333.901813L834.668736 333.901813zM834.668736 333.901813M229.914118 195.969237c-73.583066 0-133.416948-59.588231-133.416948-132.838947 0-73.200141 59.830269-132.78476 133.416948-132.78476 63.594497 0 116.795823 44.64692 130.050095 104.072589l272.216524 0.10115c13.19286-59.472631 66.455599-104.173739 130.122345-104.173739 73.561391 0 133.424173 59.584619 133.424173 132.78476 0 73.250716-59.859169 132.838947-133.424173 132.838947-67.889762 0-123.482565-50.961575-131.751584-116.35871l-268.900247-0.104763C353.429196 144.953475 297.832781 195.969237 229.914118 195.969237L229.914118 195.969237zM762.299471-13.389741c-42.374656 0-76.870444 34.358513-76.870444 76.520031 0 42.215706 34.488563 76.520031 76.870444 76.520031 42.374656 0 76.863219-34.304325 76.863219-76.520031C839.16269 20.968772 804.677739-13.389741 762.299471-13.389741L762.299471-13.389741zM229.914118-13.389741c-42.381881 0-76.874056 34.358513-76.874056 76.520031 0 42.215706 34.492175 76.520031 76.874056 76.520031 42.381881 0 76.848769-34.304325 76.848769-76.520031C306.762887 20.968772 272.292387-13.389741 229.914118-13.389741L229.914118-13.389741zM229.914118-13.389741"  horiz-adv-x="1024" />

    
    <glyph glyph-name="sousuo-m" unicode="&#58890;" d="M952.256-15.552l-152.608 163.296c61.856 74.496 95.872 167.36 95.872 265.088 0 229.344-186.624 415.968-416.032 415.968-229.344-0.032-415.968-186.624-415.968-416 0-229.344 186.624-415.936 416-415.936 60.096 0.032 118.048 12.576 172.224 37.248 16.096 7.328 23.2 26.304 15.872 42.368-7.328 16.16-26.368 23.296-42.368 15.872-45.856-20.864-94.88-31.456-145.76-31.488-194.080 0-351.968 157.888-351.968 351.936 0 194.080 157.888 351.968 351.968 351.968 194.112 0 352.032-157.888 352.032-351.968 0-91.328-34.848-177.92-98.080-243.712-12.256-12.736-11.84-32.992 0.864-45.248 0.96-0.928 2.208-1.28 3.264-2.080 0.896-1.28 1.312-2.752 2.4-3.904l165.504-177.088c6.272-6.752 14.816-10.144 23.36-10.144 7.84 0 15.68 2.848 21.856 8.64 12.928 12.032 13.632 32.256 1.568 45.184z"  horiz-adv-x="1024" />

    
    <glyph glyph-name="wode" unicode="&#58895;" d="M959.209-63.223c-5.698 49.187-19.374 96.751-40.652 141.369-20.719 43.447-48.173 83.161-81.6 118.036-33.369 34.815-71.819 63.902-114.279 86.455-27.36 14.531-55.991 26.13-85.564 34.686 35.595 18.435 67.193 44.657 91.783 76.631 37.079 48.209 56.678 105.915 56.678 166.88 0 73.181-28.498 141.981-80.245 193.728-51.748 51.747-120.548 80.245-193.729 80.245s-141.982-28.498-193.727-80.245c-51.747-51.747-80.245-120.548-80.245-193.727 0-60.964 19.598-118.671 56.678-166.88 24.592-31.974 56.19-58.196 91.785-76.631-29.573-8.557-58.204-20.155-85.564-34.686-42.462-22.553-80.912-51.641-114.281-86.455-33.426-34.876-60.882-74.59-81.6-118.036-21.278-44.619-34.954-92.182-40.652-141.37-0.542-4.682 0.941-9.372 4.076-12.891 3.135-3.519 7.625-5.532 12.337-5.532h862.388c4.713 0 9.202 2.013 12.337 5.532 3.134 3.519 4.617 8.209 4.076 12.891zM99.373-48.602c28.444 175.975 167.943 316.625 345.15 345.233 7.655 1.236 13.423 7.631 13.863 15.373 0.439 7.743-4.564 14.75-12.031 16.845-103.438 29.029-175.682 124.425-175.682 231.985 0 132.849 108.080 240.928 240.928 240.928s240.929-108.081 240.929-240.928c0-107.561-72.243-202.955-175.682-231.985-7.467-2.096-12.471-9.102-12.031-16.845 0.441-7.742 6.205-14.137 13.862-15.373 177.207-28.608 316.706-169.258 345.15-345.233h-824.455z"  horiz-adv-x="1024" />

    
    <glyph glyph-name="fenlei" unicode="&#58969;" d="M265.755756 282.431195c56.302735 0.000983 112.609402-0.330227 168.904275 0.266344 12.016924 0.127766 23.689862-10.958429 23.638756-23.62303-0.450131-110.759737-0.29288-221.52144-0.189684-332.284125 0.00688-7.715127-1.783816-14.367827-8.19376-18.955624-2.74403-1.964655-6.013868-3.660017-9.278791-4.314574-4.385337-0.87864-8.99574-0.837362-13.509826-0.839327-109.756279-0.048158-219.512558-0.041278-329.268837-0.078625-7.836014-0.002948-15.276934 1.02508-19.756622 8.388358-2.009864 3.303254-3.655103 7.072363-4.38632 10.839508-0.751856 3.878203-0.202461 8.010955-0.203443 12.032649-0.012777 108.415714 0.17101 216.832412-0.290914 325.24616-0.055038 12.984018 11.792842 23.715415 23.630893 23.589615 56.296838-0.600502 112.601539-0.26831 168.904275-0.266344zM265.207343-57.682064c48.425443 0 96.85187 0.000983 145.278296-0.000983 6.338198 0 7.86255 1.690448 7.860584 8.714653-0.019656 92.662113-0.03833 185.326192-0.057003 277.988306-0.000983 3.015288 0.170028 6.043352-0.052089 9.042915-0.291897 3.939137-2.423631 6.092493-6.592748 5.896912-3.512594-0.165114-7.030102-0.325313-10.545645-0.326296-90.149046-0.016708-180.299075-0.015725-270.448121-0.004914-3.014305 0-6.031558 0.072729-9.041932 0.217203-7.441903 0.357746-9.700421-1.830991-9.698455-9.202132 0.018674-94.337819 0.022605-188.675639 0.004914-283.014441-0.000983-7.449766 1.727795-9.309259 9.02031-9.308276 48.090302 0.005897 96.181587 0.003931 144.271889-0.001966zM264.21273 368.270581c-56.141553 0-112.286054 0.294846-168.423676-0.231945-12.176141-0.11499-22.506548 8.98198-22.466253 22.335538 0.332193 111.277683 0.178873 222.555365 0.203443 333.83403 0.002948 11.697508 4.542588 18.895672 13.464616 21.426431 2.053108 0.581829 4.290986 0.70075 6.445325 0.701733 114.965218 0.030467 229.930437-0.095333 344.893689 0.212289 11.176614 0.030467 19.559075-10.385445 19.636718-19.261281 0.03833-4.356835 0.03833-8.714653 0.03833-13.071489 0.005897-106.417644 0.019656-212.836271-0.013759-319.253915-0.001966-6.476775 0.125801-12.803179-4.335213-18.606724-3.402518-4.425633-7.526426-6.453188-12.512265-7.476302-2.439356-0.501238-4.99665-0.579863-7.500872-0.580846-56.476694-0.032433-112.954371-0.025553-169.430083-0.025553zM265.807845 709.138645c0-0.04521 0-0.090419 0-0.136612-46.087318 0-92.173652-0.001966-138.26097 0.003931-3.016271 0-6.03549 0.166096-9.046846 0.071746-3.719969-0.116955-5.924431-2.104215-6.302816-5.848754-0.201478-1.995122-0.231945-4.014814-0.231945-6.024679-0.001966-62.845359 0.016708-125.691702 0.015725-188.537061-0.000983-30.333717-0.046192-60.667433-0.048158-91.000167 0-7.839945 2.355816-10.260627 9.551032-10.260627 96.362426-0.003931 192.725834-0.005897 289.08826-0.106144 4.623179-0.004914 6.8758 1.982345 7.445835 6.281194 0.240791 1.818215 0.285017 3.673776 0.286 5.511647 0.00688 92.006573 0.002948 184.012164-0.017691 276.018737-0.000983 2.678181-0.174942 5.356362-0.296811 8.03356-0.199512 4.392217-2.55926 6.042369-6.884645 6.036473-48.432323-0.06978-96.865629-0.043244-145.296969-0.043244zM724.565996 746.35111c54.633909 0 109.267818 0.026536 163.900745-0.043244 4.95832-0.005897 10.120084 0.125801 14.82582-1.144984 6.555401-1.771039 10.946635-6.269401 11.450821-13.63661 0.50222-7.318068 1.601012-14.627291 1.609857-21.940445 0.126784-104.91 0.32433-209.82-0.115973-314.728035-0.059952-14.360947-2.672284-21.002836-14.427779-25.493334-1.828043-0.697801-3.8841-1.130242-5.834012-1.131224-114.294936-0.036364-228.588889-0.014742-342.883825 0.001966-13.509826 0.001966-20.763028 7.091037-20.764011 20.307-0.009828 112.61923-0.097299 225.23846 0.075677 337.855724 0.022605 14.137847 6.947545 20.05245 21.23085 20.173337 2.678181 0.023588 5.357345-0.20934 8.035526-0.210323 54.299751-0.013759 108.598519-0.009828 162.896304-0.009828zM723.477033 709.062968c0-0.022605 0-0.043244 0-0.065849-45.082877 0-90.164771 0.000983-135.247648-0.001966-3.519474 0-7.038948-0.094351-10.557439-0.025553-4.893454 0.096316-7.599154-2.038366-7.666969-7.110693-0.019656-1.506661-0.217203-3.011357-0.217203-4.517035-0.015725-93.013962-0.026536-186.028908-0.015725-279.041887 0.000983-8.516124 1.57939-10.125981 10.149569-10.74614 0.834413-0.059952 1.67374-0.097299 2.511102-0.097299 94.689668-0.012777 189.38032-0.030467 284.069988-0.015725 8.356907 0.000983 10.779556 2.528793 10.775624 10.856215-0.005897 14.581098-0.044227 29.161214-0.043244 43.742312 0.003931 78.433847 0.017691 156.866711 0.02457 235.301541 0.000983 9.96873-1.624599 11.731907-10.49159 11.729941-47.763024-0.013759-95.52703-0.00688-143.291036-0.00688zM511.793608 98.954668c1.201004 20.222478 4.140615 39.832659 10.589872 58.788284 3.920464 11.519618 7.77213 23.219092 13.317193 33.98194 5.385847 10.455225 12.231179 20.35221 19.640649 29.519943 8.481725 10.495521 17.624888 20.673592 27.722367 29.58186 8.801142 7.764268 19.007714 14.119174 29.188733 20.081935 9.894036 5.794699 20.33845 10.792332 30.930288 15.208137 7.829134 3.264924 16.141814 5.835977 24.486928 7.299395 16.752145 2.936662 33.518049 7.057621 50.722291 5.123434 14.601738-1.641307 29.483578-2.645748 43.583096-6.401098 14.85727-3.957811 29.514046-9.716146 43.191934-16.760007 14.159469-7.293498 27.140539-16.800303 39.237071-27.529735 11.852794-10.513212 22.042658-22.333572 31.078693-35.123975 5.83696-8.261574 10.543679-17.370338 15.257278-26.362146 3.702278-7.063518 7.572618-14.266596 9.703369-21.873613 3.593185-12.830698 6.70872-25.921843 8.450275-39.110288 1.611823-12.211522 1.9106-24.72477 1.409362-37.0503-0.513031-12.61153-1.458503-25.307582-5.938191-37.452272-3.164676-8.582956-5.217785-17.570833-8.235038-26.213741-1.852613-5.307221-4.158306-10.56137-7.021257-15.388975-5.851703-9.873397-12.098498-19.519762-18.432765-29.094382-2.086524-3.153865-1.784799-5.41828 0.787238-7.917588 15.251381-14.829751 30.492933-29.670314 45.665688-44.579674 9.253238-9.093039 18.891741-17.870593 27.384278-27.634896 5.872342-6.750982 3.410381-18.687315-3.575494-24.480048-6.095442-5.054637-19.077494-4.741117-24.834846 0.775444-20.195942 19.349735-40.307361 38.787923-60.515096 58.124881-3.610876 3.455591-7.3849 6.776535-11.344676 9.821307-3.509646 2.699803-7.086123 1.382826-10.111239-1.127293-21.306527-17.681891-45.715812-28.876196-72.299093-36.261096-21.681964-6.022713-43.677446-6.22026-65.727967-5.538183-15.912818 0.491409-31.674281 3.803508-46.653421 9.003602-15.192412 5.273805-30.213813 11.558931-43.354099 21.206279-11.552051 8.481725-23.291821 16.827822-33.972111 26.329713-7.159834 6.370631-12.968293 14.394363-18.738421 22.154699-6.056129 8.145601-11.679818 16.664674-16.848461 25.400949-3.189247 5.389778-5.40452 11.402663-7.641415 17.294661-2.777446 7.313154-5.330809 14.727538-7.596206 22.214651-1.829026 6.046301-3.494903 12.197763-4.515069 18.420971-1.936153 11.813481-3.357309 23.708536-4.992719 35.569192zM871.306726 99.31831c0.865863 89.8542-72.547746 159.502631-156.367439 160.887422-89.319547 1.475211-167.921456-72.892715-163.412284-168.949484 3.69245-78.624514 70.289228-156.651474 168.956364-152.340831 78.383723 3.423158 150.437111 67.725054 150.822376 160.402893z"  horiz-adv-x="1024" />

    
    <glyph glyph-name="1111113" unicode="&#58892;" d="M804.02963 787.911111 180.148148 787.911111c-60.681481 0-109.985185-49.303704-109.985185-109.985185l0-525.274074c0-60.681481 49.303704-109.985185 109.985185-109.985185l623.881481 0c60.681481 0 109.985185 49.303704 109.985185 109.985185l0 130.844444 0 34.133333 0 360.296296C914.014815 738.607407 864.711111 787.911111 804.02963 787.911111zM876.088889 677.925926l0-147.911111L614.4 530.014815 614.4 749.985185l189.62963 0C843.851852 749.985185 876.088889 717.748148 876.088889 677.925926zM500.622222 378.311111c0 0-1.896296 0-1.896296 0-1.896296 0-1.896296 0-3.792593 1.896296-1.896296 0-1.896296 0-3.792593 0-1.896296 0-1.896296 0-3.792593 0-1.896296 0-1.896296 0-3.792593-1.896296 0 0-1.896296 0-1.896296 0l-77.748148-45.511111 0 417.185185 174.459259 0 0-417.185185L500.622222 378.311111zM180.148148 749.985185l189.62963 0 0-221.866667L108.088889 528.118519l0 147.911111C108.088889 717.748148 140.325926 749.985185 180.148148 749.985185zM876.088889 283.496296l0-130.844444c0-39.822222-32.237037-72.059259-72.059259-72.059259L180.148148 80.592593c-39.822222 0-72.059259 32.237037-72.059259 72.059259l0 341.333333 261.688889 0 0-191.525926c0 0 0 0 0-1.896296 0-1.896296 0-1.896296 0-3.792593 0-1.896296 0-1.896296 1.896296-3.792593 0 0 0 0 0-1.896296 0-1.896296 1.896296-1.896296 1.896296-3.792593 0 0 0 0 0 0 1.896296-1.896296 3.792593-1.896296 5.688889-3.792593 0 0 0 0 1.896296 0 1.896296 0 3.792593-1.896296 5.688889-1.896296 0 0 0 0 0 0 0 0 0 0 0 0l0 0c1.896296 0 3.792593 0 5.688889 1.896296 0 0 1.896296 0 1.896296 0 0 0 0 0 1.896296 0l96.711111 56.888889 96.711111-56.888889c0 0 0 0 1.896296 0 0 0 1.896296 0 1.896296 0 1.896296 0 3.792593-1.896296 5.688889-1.896296 0 0 0 0 0 0s0 0 0 0c0 0 0 0 0 0 1.896296 0 3.792593 0 5.688889 1.896296 0 0 0 0 1.896296 0 1.896296 0 3.792593 1.896296 5.688889 3.792593 0 0 0 0 0 0 0 1.896296 1.896296 1.896296 1.896296 3.792593 0 0 0 0 0 1.896296 0 1.896296 0 1.896296 1.896296 3.792593 0 1.896296 0 1.896296 0 3.792593 0 0 0 0 0 1.896296L616.296296 493.985185l261.688889 0 0-176.355556L877.985185 283.496296z"  horiz-adv-x="1024" />

    
    <glyph glyph-name="gouwuche1" unicode="&#58901;" d="M25.496105 831.353459C-8.498702 819.355291-8.498702 905.842081 26.995876 892.844066 107.483582 899.343073 187.971287 893.34399 268.458993 895.843608c8.998625-48.992516 22.496564-122.981215 30.995265-171.973731 223.965789-2.999542 448.931426 0.499924 673.397139-1.499771 28.495647 6.998931 67.989615-23.996335 43.99328-59.490913-50.492287-135.979229-100.484651-271.958458-155.476251-404.938146-158.975716 5.49916-318.451357 0.499924-476.927149 2.499618 9.998473-55.991447 20.496869-111.982895 29.995418-167.974342 136.979076-1.999695 273.458229 7.998778 410.937229 2.999542 58.491065-3.999389 107.483582-79.987782 82.987324-147.977396-19.497022-70.489233-103.484193-90.986102-144.977855-36.994349-29.495495 29.995418-23.496411 78.987935-23.996335 119.981673-79.987782-1.999695-159.975564-3.999389-239.963346-3.499465 1.999695-44.993127 6.998931-99.484804-27.995724-129.480222-48.492593-53.991753-136.979076-15.497633-144.477931 63.490302-10.498396 55.991447 46.992822 95.485415 27.4958 151.476862-42.493509 229.464949-89.486331 485.425851-130.480069 715.390724C157.475946 829.853688 90.986102 825.354375 25.496105 831.353459zM311.452426 655.880262c19.996945-109.9832 39.993891-219.9664 59.490913-330.449524 152.476709 0 304.953418 1.499771 457.430128-0.999847 40.493815 110.983047 83.487247 220.466324 124.480986 330.949447C739.886982 655.880262 525.419742 655.380339 311.452426 655.880262zM408.937535 15.478084c-56.491371-2.999542-19.497022-108.983353 22.496564-70.489233C462.429364-34.014356 440.432724 23.476862 408.937535 15.478084zM808.876444 21.477167c-43.493356-27.4958 0.999847-105.983811 35.994502-66.989767C875.866211-18.516724 843.371175 40.974189 808.876444 21.477167z"  horiz-adv-x="1025" />

    
    <glyph glyph-name="fengongsixinwen" unicode="&#58956;" d="M904.072095 832.158996 121.002376 832.158996c-30.895661 0-55.93494-24.224728-55.93494-54.107315l0-788.43696c0-29.881564 25.039279-54.103222 55.93494-54.103222l783.069719 0c30.890544 0 55.93494 24.221658 55.93494 54.103222L960.007035 778.051681C960.008059 807.934269 934.962639 832.158996 904.072095 832.158996zM904.901996 14.356218c0-17.934464-7.900947-23.25361-26.477025-23.25361L146.655639-8.897392c-18.581194 0-26.481118 5.318122-26.481118 23.25361L120.174522 753.316324c0 17.930371 7.899924 23.255657 26.481118 23.255657l731.769332 0c18.576077 0 26.477025-5.325285 26.477025-23.255657L904.901996 14.356218zM478.973304 662.104949 242.458589 662.104949c-18.535145 0-33.55728-14.535041-33.55728-32.465412l0-228.79694c0-17.929348 15.023158-32.465412 33.55728-32.465412l236.514715 0c18.539238 0 33.56342 14.535041 33.56342 32.465412L512.536724 629.639536C512.536724 647.569908 497.513566 662.104949 478.973304 662.104949zM457.431685 437.943586c0-12.805654-3.568269-13.979386-16.803711-13.979386L280.812105 423.9642c-13.241582 0-16.810874 1.173732-16.810874 13.979386L264.001231 592.537524c0 12.806677 3.569292 13.979386 16.810874 13.979386l159.814846 0c13.236466 0 16.803711-1.172709 16.803711-13.979386L457.430662 437.943586zM584.45366 564.980911l15.97688 0 175.794795 0 15.980973 0c13.240559 0 23.972994 12.339026 23.972994 27.556613 0 15.21861-10.731412 27.556613-23.972994 27.556613l-15.980973 0L600.43054 620.094136l-15.97688 0c-13.240559 0-23.974018-12.338003-23.974018-27.556613C560.479643 577.319937 571.212078 564.980911 584.45366 564.980911zM792.206308 465.499176l-15.980973 0L600.43054 465.499176l-15.97688 0c-13.240559 0-23.974018-12.338003-23.974018-27.556613 0-15.21861 10.732435-27.557636 23.974018-27.557636l15.97688 0 175.794795 0 15.980973 0c13.240559 0 23.972994 12.339026 23.972994 27.557636C816.179302 453.162196 805.44789 465.499176 792.206308 465.499176zM792.206308 156.310278l-15.980973 0-15.981996 0L264.831132 156.310278 248.851183 156.310278l-15.981996 0c-13.235442 0-23.967878-12.342096-23.967878-27.556613 0-15.217586 10.732435-27.557636 23.967878-27.557636l15.981996 0 15.97995 0 495.412207 0 15.981996 0 15.980973 0c13.240559 0 23.972994 12.340049 23.972994 27.557636C816.179302 143.968182 805.44789 156.310278 792.206308 156.310278zM232.868163 255.79406l15.981996 0 15.97995 0 495.412207 0 15.981996 0 15.980973 0c13.240559 0 23.972994 12.339026 23.972994 27.552519 0 15.226796-10.731412 27.561729-23.972994 27.561729l-15.980973 0-15.981996 0L264.831132 310.908308 248.851183 310.908308l-15.981996 0c-13.235442 0-23.967878-12.334933-23.967878-27.561729C208.901309 268.132062 219.632721 255.79406 232.868163 255.79406z"  horiz-adv-x="1024" />

    
    <glyph glyph-name="wodewenda" unicode="&#58965;" d="M511.052418 831.703625c-246.791779 0-446.839955-200.014406-446.839954-446.839955s200.048175-446.839955 446.839954-446.839954 446.839955 200.048175 446.839955 446.839954S757.877967 831.703625 511.052418 831.703625z m0-831.948963c-212.649168 0-385.107985 172.458817-385.107984 385.107985s172.458817 385.107985 385.107984 385.107985 385.107985-172.458817 385.107985-385.107985S723.701586-0.245338 511.052418-0.245338z m-37.166481 201.829752h67.982324v-71.544453h-67.982324v71.544453z m190.034101 300.659641c0-18.751063-3.562129-35.58752-10.82044-50.776454-7.258311-15.188934-22.683628-34.175357-46.340421-56.825217-23.523763-22.649859-39.283702-38.84675-46.978964-48.323588-7.729032-9.610892-13.508665-20.969591-17.541515-34.376949-3.999081-13.274328-5.679349-31.117718-5.242397-53.565986h-61.630663c0 26.110681 2.083451 47.114041 6.351662 62.739926 4.26821 15.625886 10.518564 29.369911 18.986423 40.963971 8.367575 11.728112 23.557532 28.798906 45.534056 51.582819 21.977547 22.682605 36.058241 39.183418 42.408879 49.465598 6.351662 10.249435 9.476839 25.539676 9.476838 45.870724 0 20.331048-7.258311 38.309514-21.775956 54.036707-14.517645 15.625886-35.519981 23.456225-63.07557 23.456225-62.201667 0-93.219101-36.931121-93.219102-110.726848h-61.832254c0.873903 33.537837 4.906753 59.177797 11.929704 76.685544s18.213827 33.133631 33.604352 46.978964c15.424294 13.744026 32.596396 23.99346 51.582819 30.479175 18.986423 6.587022 38.948057 9.812483 59.950394 9.812483 42.542932 0 77.92886-12.500709 106.156762-37.503149 28.259624-25.001417 42.441625-58.270125 42.475393-99.973945z"  horiz-adv-x="1024" />

    
    <glyph glyph-name="gengduo" unicode="&#58891;" d="M145.54 462.962c-20.803 0-41.473-8.504-56.182-23.124-14.704-14.617-23.265-35.164-23.265-55.841 0-20.672 8.56-41.22 23.265-55.837 14.71-14.615 35.379-23.122 56.183-23.122 20.797 0 41.467 8.506 56.176 23.122 14.702 14.617 23.265 35.164 23.265 55.837 0 20.677-8.562 41.224-23.265 55.84-14.709 14.62-35.379 23.125-56.176 23.125z m366.038 0c-20.8 0-41.47-8.514-56.176-23.13-14.705-14.62-23.273-35.164-23.273-55.835 0-20.672 8.57-41.22 23.273-55.837 14.707-14.615 35.377-23.122 56.176-23.122 20.796 0 41.468 8.506 56.173 23.122 14.709 14.617 23.275 35.164 23.275 55.837 0 20.67-8.566 41.215-23.275 55.835-14.705 14.616-35.377 23.13-56.173 23.13z m423.055-23.13c-14.704 14.616-35.375 23.13-56.175 23.13-20.797 0-41.467-8.514-56.172-23.13-14.707-14.62-23.267-35.164-23.267-55.835 0-20.672 8.56-41.22 23.267-55.837 14.704-14.615 35.375-23.122 56.172-23.122 20.8 0 41.47 8.506 56.175 23.122 14.707 14.617 23.273 35.164 23.273 55.837 0 20.67-8.566 41.215-23.273 55.835z"  horiz-adv-x="1024" />

    
    <glyph glyph-name="zixun" unicode="&#58971;" d="M881.836186 136.704l-97.28 98.304c-22.528 23.552-82.944 54.784-155.648 5.632s-125.952-50.176-188.928-4.096l-89.088 92.16c-7.68 14.848-38.912 83.968-6.144 138.752 5.632 9.216 10.752 17.92 15.36 25.088 37.376 61.44 50.688 89.088 5.632 158.208l-1.536 2.56-91.648 91.648c-25.088 25.6-91.648 58.88-165.376 0.512l-2.048-1.536-1.536-2.048c-2.56-2.56-59.392-69.12-88.064-165.888-26.624-91.136-32.256-226.304 93.696-352.256l240.64-240.64c5.12-5.632 62.976-63.488 154.112-93.696 30.208-9.728 66.56-17.408 106.496-17.408 75.776 0 165.888 26.112 261.632 109.056l2.56 2.56c23.04 25.088 54.272 89.088 8.704 151.04l-1.536 2.048z m-50.176-112.64c-238.08-205.824-431.616-9.216-439.808-0.512l-241.664 241.664c-194.048 194.048-25.088 411.136-4.608 435.712 46.592 35.328 78.336 8.704 84.48 2.56l87.552-87.552c16.384-25.088 17.92-35.328 16.896-41.984-1.024-11.264-10.752-27.136-25.6-50.688-4.608-7.68-10.24-16.384-15.872-26.112-54.272-91.648 4.608-196.608 7.168-200.704l2.048-3.072 98.304-100.864 2.048-1.536c108.032-80.896 195.072-41.984 259.072 1.024 47.104 31.744 75.264 7.168 79.872 2.56l95.232-96.256c24.064-34.816 0.512-67.072-5.12-74.24zM664.236186 348.672c0-16.384 13.312-29.184 29.184-29.184s29.184 13.312 29.184 29.184c0 132.096-107.52 239.104-239.104 239.104-16.384 0-29.184-13.312-29.184-29.184s13.312-29.184 29.184-29.184c99.328 0 180.736-80.896 180.736-180.736zM485.036186 860.672c-16.384 0-29.184-13.312-29.184-29.184s13.312-29.184 29.184-29.184c250.368 0 454.144-203.776 454.144-454.144 0-16.384 13.312-29.184 29.184-29.184s29.184 13.312 29.184 29.184c0 282.624-229.888 512.512-512.512 512.512z"  horiz-adv-x="1025" />

    
    <glyph glyph-name="shouye" unicode="&#58928;" d="M422.63 4.179V272.288h178.74v-268.109h223.424V361.658h134.054L512 763.821 65.152 361.658h134.054V4.18H422.63z"  horiz-adv-x="1024" />

    
    <glyph glyph-name="wodeshoucang" unicode="&#58950;" d="M742.082-16.696c-5.055 0-10.129 1.263-14.674 3.651L501.771 105.579 276.139-13.042c-4.55-2.392-9.624-3.654-14.679-3.654-9.082 0-17.64 3.971-23.478 10.894-5.894 6.988-8.375 16.252-6.806 25.416l43.094 251.255L91.73 448.801c-8.6 8.382-11.675 20.576-8.022 31.821 3.652 11.245 13.306 19.304 25.193 21.033l252.267 36.656 112.816 228.591c5.316 10.772 15.963 17.463 27.787 17.463 11.823 0 22.47-6.691 27.786-17.462l112.817-228.591 252.264-36.656c11.892-1.729 21.546-9.79 25.197-21.037 3.652-11.247 0.575-23.441-8.029-31.824L729.272 270.869l43.092-251.245c1.57-9.175-0.91-18.438-6.804-25.427-5.838-6.923-14.396-10.892-23.478-10.893zM175.707 450.733l150.306-146.512c7.847-7.648 11.572-19.109 9.724-29.91l-35.484-206.89 185.789 97.675c4.769 2.507 10.207 3.83 15.73 3.83s10.961-1.323 15.726-3.827l185.793-97.678L667.808 274.3c-1.856 10.789 1.865 22.257 9.714 29.914l150.313 146.519-207.717 30.183c-10.847 1.577-20.598 8.66-25.449 18.486l-92.898 188.23-92.894-188.224c-4.848-9.828-14.602-16.916-25.452-18.493l-207.718-30.182z"  horiz-adv-x="1024" />

    
    <glyph glyph-name="yaodian" unicode="&#58900;" d="M998.568 415.511C961.543 444.484 523.007 824.978 523.007 824.978s-30.018 25.732-57.506-0.863C438.023 797.517 24.468 436.437 24.468 436.437S-17.368 405.9 8.369 376.562c5.657-6.445 6.841-6.423 6.841-6.423s21.289-13.613 49.62 15.365c28.329 28.967 51.982 51.393 51.982 51.393l1.65-455.637s0.326-54.73 52.47-54.078c52.153 0.632 688.574 0 688.574 0s46.352 6.102 46.352 58.256c0 52.148 0.756 447.912 0.756 447.912l61.813-55.91s25.979-31.962 43.631-12.321c3.187 3.547 8.395 8.544 8.395 8.544s15.128 12.876-21.885 41.848zM796.295-32.288c-52.732 2.684-590.577 0.444-590.577 0.444s-41.347-0.59-42.532 76.204c-1.066 69.527 0.3 436.837 0.3 436.837l333.168 297.729L866.15 461.707l2.363-448.362s-2.513-49.18-72.218-45.633z m0 0M656.088 319.69H553.082V422.706c0 22.753-18.471 41.203-41.208 41.203-22.769 0-41.203-18.451-41.203-41.203V319.69H367.659c-22.768 0-41.203-18.452-41.203-41.198 0-22.758 18.435-41.209 41.203-41.209h103.012v-103.006c0-22.762 18.434-41.214 41.203-41.214 22.736 0 41.208 18.452 41.208 41.214V237.283h103.006c22.742 0 41.209 18.445 41.209 41.209 0 22.746-18.467 41.198-41.209 41.198z m0 0"  horiz-adv-x="1024" />

    
    <glyph glyph-name="guanbi" unicode="&#58889;" d="M824.504 63.27a25.365 25.365 0 0 0-17.93 7.435l-610.77 610.77a25.313 25.313 0 1 0 35.86 35.859l610.822-610.822a25.418 25.418 0 0 0-17.982-43.242M213.734 63.27a25.313 25.313 0 0 0-17.93 43.294l610.823 610.77a25.365 25.365 0 0 0 35.807-35.86l-610.77-610.769a25.313 25.313 0 0 0-17.93-7.435"  horiz-adv-x="1024" />

    
    <glyph glyph-name="huiyuanzhongxin" unicode="&#59258;" d="M812.032 41.984H152.576c-35.328 0-57.344 18.944-62.976 53.248-3.584 20.992-19.456 119.808-36.864 228.864C35.84 431.104 18.432 538.624 1.536 646.144c-1.024 7.68-2.56 18.944 0.512 30.208 4.608 17.92 17.92 31.744 35.328 37.888 17.92 6.144 37.888 4.096 53.76-6.656 15.872-10.24 31.232-20.48 46.592-30.72L261.12 595.456c56.32 61.44 157.184 171.52 204.288 223.232 11.776 12.8 28.672 20.48 46.592 20.48s34.816-7.68 46.592-20.48c47.104-51.2 147.456-161.28 203.264-222.72 56.32 36.864 112.128 73.728 168.448 111.104 20.992 13.824 39.936 12.288 52.224 8.704 27.648-8.192 45.056-35.328 40.448-64l-90.112-559.104c-5.12-31.232-28.16-50.688-60.928-50.688h-59.904zM147.968 98.816c0.512 0 2.048-0.512 5.12-0.512h718.848c2.56 0 3.584 0.512 4.096 0.512 0 0 0.512 1.536 1.024 4.608l89.6 553.984c0.512 2.048-0.512 4.096-1.536 4.096h-0.512l-3.072-1.536c-56.32-36.864-113.152-73.728-169.472-111.104l-39.936-25.6-16.384 17.408C686.08 595.968 568.32 723.968 516.608 780.288c-2.048 2.56-5.632 2.56-7.68 0.512l-0.512-0.512c-73.728-79.36-146.944-159.232-220.16-238.592L271.36 523.776l-164.864 107.52c-15.36 10.24-30.72 19.968-46.592 30.208-1.024 1.024-2.048 1.024-2.56 0.512-0.512-1.536-1.024-3.584 0-9.728 5.12-31.232 29.696-182.784 51.712-318.976l36.864-226.816c1.024-5.12 2.048-6.656 2.048-7.68z m761.856-113.152l-0.512-2.048-4.608-27.648c-3.072-17.92-14.336-27.136-33.28-27.136H153.088c-20.992 0-31.744 9.216-34.816 29.184-1.024 5.12-2.56 14.336-4.608 27.648h796.16z"  horiz-adv-x="1024" />

    
    <glyph glyph-name="wode1" unicode="&#58905;" d="M512 372.736c-124.416 0-225.792 101.376-225.792 225.792S387.584 824.32 512 824.32s225.792-101.376 225.792-225.792-101.376-225.792-225.792-225.792zM512 768c-93.44 0-169.472-76.032-169.472-169.472s76.032-169.472 169.472-169.472 169.472 76.032 169.472 169.472S605.44 768 512 768zM932.608-56.32H91.392l-1.792 26.112c-0.768 8.96-1.024 18.176-1.024 27.392 0 221.184 189.952 400.896 423.424 400.896s423.424-179.968 423.424-400.896c0-9.216-0.256-18.432-1.024-27.392l-1.792-26.112zM144.896 0h734.208c-1.536 188.928-165.632 342.016-367.104 342.016S146.432 188.928 144.896 0z"  horiz-adv-x="1024" />

    
    <glyph glyph-name="fukuan" unicode="&#58957;" d="M624.528 375.496c13.703 0 24.906 11.17 24.906 24.905s-11.169 24.904-24.906 24.904H494.381l114.927 169.742a24.694 24.694 0 0 1 3.838 18.689c-1.24 6.523-4.984 12.188-10.489 15.93a24.765 24.765 0 0 1-13.953 4.301c-8.288 0-16.026-4.083-20.632-10.952l-120.62-178.157-120.584 178.157a24.982 24.982 0 0 1-20.667 10.952 24.77 24.77 0 0 1-13.954-4.3c-11.385-7.704-14.383-23.2-6.684-34.587l114.9-169.745H253.95c-13.735 0-24.938-11.17-24.938-24.901 0-13.737 11.168-24.905 24.938-24.905h167.268v-79.505H253.95c-13.735 0-24.938-11.168-24.938-24.933 0-13.738 11.168-24.905 24.938-24.905h167.3V93.98c0-13.735 11.136-24.936 24.902-24.936 13.77 0 24.933 11.17 24.933 24.936V246.187h153.475c13.704 0 24.902 11.166 24.902 24.905 0 13.733-11.164 24.934-24.902 24.934H471.086V375.53H624.53v-0.035z m0 0M802.163 311.894c-112.73 0-204.395-91.82-204.395-204.668 0-112.857 91.695-204.673 204.395-204.673 112.699 0 204.422 91.817 204.422 204.673 0 112.848-91.694 204.668-204.422 204.668m153.101-204.668c0-85.385-69.327-154.836-154.589-154.836-85.228 0-154.583 69.451-154.583 154.836 0 85.378 69.357 154.864 154.583 154.864 85.262 0 154.59-69.487 154.59-154.864M560.122-56.737H169.93c-57.047 0-103.448 46.468-103.448 103.602V721.947c0 57.14 46.402 103.604 103.448 103.604h560.526c57.047 0 103.448-46.463 103.448-103.604V389.11c0-13.735 11.167-24.904 24.933-24.904 13.77 0 24.933 11.17 24.933 24.904V721.947c0 84.607-68.768 153.441-153.287 153.441H169.93C85.413 875.39 16.64 806.556 16.64 721.948v-675.084c0-84.609 68.772-153.437 153.287-153.437h390.194c13.703 0 24.9 11.166 24.9 24.902 0 13.766-11.197 24.934-24.9 24.934M876.5 96.893h-55.314V197.865c0 13.732-11.165 24.903-24.934 24.903-13.703 0-24.9-11.171-24.9-24.903v-150.813H876.47c13.703 0 24.9 11.17 24.9 24.902 0.034 13.737-11.135 24.939-24.871 24.939"  horiz-adv-x="1024" />

    
    <glyph glyph-name="daipingjia" unicode="&#59001;" d="M959.86 354c-1.28 6.62-3.29 13.28-5.89 19.28l-0.16 0.38-0.18 0.36c-6.31 13.89-15.02 27.08-25.93 39.19-11.42 12.69-22.39 21.77-33.55 27.79-5.86 3.05-11.73 5.43-18.5 7.54a96.59 96.59 0 0 1-24.05 4.11 82.98 82.98 0 0 1-3.23 0.06c-8.4 0-16.9-1.31-25.25-3.9-9.8-3.02-19.23-8.13-27.99-15.14l-0.53-0.42-0.51-0.44c-4.31-3.66-9.28-8.22-14.81-13.58-4.97-4.86-9.19-8.89-12.74-12.23l-3.65-3.49-0.12 0.12-2.68-2.75-28.18-26.75 1.12-1.15-2.26-2.35-98.68-101.77-37.18-38.35-33.49-34.57c-10.27-10.57-18.88-19.49-25.75-26.8l-11.04-11.6-1.55-1.63c-6.39-6.58-11.57-13-15.56-19.37-3.29-5.17-6.36-11.01-9.04-17.21-2.58-5.19-5.06-11.72-8.09-21.07-2.59-7.95-5.26-16.76-8.02-26.34-2.62-9.11-5.11-17.91-7.47-26.47-3.03-11.17-4.74-18.98-5.64-25.53-3.13-20.94 0.8-39.02 11.79-53.13 6.57-8.28 20.94-21.47 46.72-21.47 3.21 0 6.57 0.19 10.02 0.58l0.93 0.11 0.93 0.16c5.49 0.87 12.48 2.48 22.65 5.21 8.64 2.33 17.82 5.11 28.11 8.51 9.64 3.22 18.88 6.52 27.66 9.84 9.52 3.67 16.76 6.77 22.35 9.55 7.33 3.41 14.38 7.79 20.95 13.05 4.39 3.44 8.44 6.85 12.07 10.2 3.09 2.62 6.82 6.35 14.15 13.86 6.62 6.87 14.78 15.37 24.61 25.62 8.9 9.38 19.19 19.92 32.47 33.31l0.27 0.27 0.26 0.29 36.73 38.31 98.52 101.62 31.84 32.83-0.11 0.11 0.36 0.33c2.79 2.52 5.86 5.46 9.1 8.75 1.95 2.02 4.26 4.32 6.9 6.92 3.19 3.16 6.71 6.68 10.62 10.71l0.68 0.69 0.63 0.71c7.24 8.13 12.73 17.12 16.28 26.74a82.412 82.412 0 0 1 5.27 28.93c-0.02 7.34-0.74 14.58-2.16 21.47zM749.81 146.94l-36.73-38.31c-12.21-12.3-23.22-23.57-33.02-33.88-9.78-10.22-17.89-18.65-24.32-25.31-6.45-6.62-10.27-10.43-11.49-11.31-3.04-2.87-6.56-5.86-10.55-8.98-3.96-3.16-8.09-5.71-12.38-7.66-4.3-2.18-10.55-4.85-18.8-8.04-8.28-3.12-16.91-6.2-25.93-9.22-9.03-2.99-17.59-5.61-25.71-7.79-8.11-2.18-14.14-3.62-18.14-4.26-1.79-0.21-3.45-0.3-4.98-0.3-5.52 0-9.37 1.34-11.53 4.06-2.75 3.53-3.51 9.34-2.3 17.52 0.61 4.43 2.07 10.82 4.35 19.22 2.31 8.37 4.74 16.99 7.35 25.99 2.6 9.04 5.11 17.32 7.57 24.86 2.46 7.58 4.43 12.79 5.98 15.63 1.82 4.41 3.9 8.44 6.2 12.06 2.27 3.62 5.58 7.64 9.86 12.06 1.85 1.93 6.14 6.4 12.87 13.51 6.71 7.15 15.14 15.87 25.24 26.28l33.49 34.55L664 235.97l98.67 101.78 85.84-89-98.7-101.81z m164.76 173.28c-1.53-4.12-3.97-8.05-7.35-11.84-3.66-3.77-6.95-7.06-9.87-9.95-2.88-2.83-5.41-5.36-7.56-7.58-2.44-2.49-4.74-4.73-6.86-6.62l-85.84 88.51c3.67 3.48 8.06 7.65 13.08 12.56 5.05 4.89 9.27 8.74 12.63 11.61 4.27 3.43 8.73 5.9 13.29 7.32 4.15 1.29 8.25 1.93 12.27 1.93 0.42 0 0.85 0 1.28-0.02 4.42-0.19 8.72-0.87 12.84-2.12 4.14-1.29 7.73-2.71 10.78-4.3 6.45-3.47 13.57-9.51 21.37-18.19 7.82-8.68 13.82-17.75 18.12-27.24 1.23-2.85 2.22-6.16 2.95-9.95 0.78-3.78 1.17-7.71 1.17-11.84 0-4.07-0.74-8.16-2.3-12.28zM372.22-3.93H181.58c-32.75 0-59.4 27.48-59.4 61.26V710.68c0 33.78 26.65 61.25 59.4 61.25h633.44c32.75 0 59.38-27.47 59.38-61.25v-166.3c0-17.14 13.48-31.03 30.09-31.03s30.09 13.89 30.09 31.03v166.3c0 68-53.65 123.32-119.57 123.32H181.58C115.64 834 62 778.68 62 710.68v-653.35c0-68 53.64-123.34 119.57-123.34h190.64c16.62 0 30.09 13.9 30.09 31.04 0.01 17.15-13.46 31.04-30.08 31.04zM737.09 631.46c0 17.14-13.48 31.03-30.09 31.03H278.22c-16.61 0-30.09-13.89-30.09-31.03s13.48-31.04 30.09-31.04H707c16.61 0.01 30.09 13.9 30.09 31.04zM278.22 498.74c-16.62 0-30.09-13.89-30.09-31.03s13.47-31.04 30.09-31.04h295.86c16.62 0 30.09 13.89 30.09 31.04 0 17.14-13.47 31.03-30.09 31.03H278.22zM446.21 323.69H278.22c-16.62 0-30.09-13.89-30.09-31.03s13.47-31.04 30.09-31.04h167.99c16.61 0 30.09 13.89 30.09 31.04 0 17.14-13.48 31.03-30.09 31.03z"  horiz-adv-x="1024" />

    
    <glyph glyph-name="jia" unicode="&#58934;" d="M453.4784 442.5216V793.6h117.0432v-351.0784H921.6v-117.0432h-351.0784V-25.6H453.4784v351.0784H102.4V442.5216z"  horiz-adv-x="1024" />

    
    <glyph glyph-name="fanhui" unicode="&#58883;" d="M766.86222222-125.72444444999996c-10.24 0-20.59377778 3.64088889-28.44444444 10.92266667L228.69333333 357.60355555c-15.70133333 14.56355555-15.70133333 38.22933333 0 52.7928889L738.41777778 882.80177778c15.70133333 14.56355555 41.18755555 14.56355555 56.88888889 0 15.70133333-14.56355555 15.70133333-38.22933333 0-52.79288889L314.02666667 384l481.28-446.00888889c15.70133333-14.56355555 15.70133333-38.22933333 0-52.79288889-7.85066667-7.28177778-18.20444445-10.92266667-28.44444445-10.92266667z"  horiz-adv-x="1024" />

    


  </font>
</defs>
</svg>
